# xmcd
#
# Track frame offsets:
#	150
#	13781
#	24140
#	33924
#	46354
#	60545
#	73266
#	81933
#	91820
#	105782
#	116024
#	138048
#	150744
#	167594
#	187844
#	198848
#	215837
#
# Disc length: 3067 seconds
#
# Revision: 1
# Processed by: cddbd v1.5.2PL0 Copyright (c) Steve Scherf et al.
# Submitted via: audiograbber 1.83.01
#
DISCID=d20bf911
DTITLE=VÁRIOS - CD-3 - BAIÃO - 100 ANOS DE GONZAGÃO
DYEAR=1900
DGENRE=FORRÓ
TTITLE0=WANDERLÉA - BAIÃO
TTITLE1=ZECA BALEIRO - RESPEITA JANUÁRIO
TTITLE2=DOMINGUINHOS - DAQUELE JEITO
TTITLE3=PAULO NETO - IMBALANÇA
TTITLE4=MÁRCIA CASTRO - PARAÍBA
TTITLE5=MILENA - DEZESSATE LÉGUA E MEIA
TTITLE6=ELIANA PITTMAN - FORRÓ DE MANÉ VITO
TTITLE7=VIRGÍNIA ROSA - ABC DO SERTÃO
TTITLE8=SIMONINHA - FORRÓ NO ESCURO
TTITLE9=CLAUDETTE SOARES E B3 ORGAN TRIO - BAIÃO DE DOIS
TTITLE10=EDY STAR E BANDA MONOMOTOR - DEZESSETE E SETECENTOS-O TORRADO-CALANGO 
TTITLE10=DA LACRÁIA
TTITLE11=ELA - DEIXA A TANGA VOAR
TTITLE12=SILVIA MACHETE - LOROTA BOA
TTITLE13=CHINA - SIRI JOGANDO BOLA
TTITLE14=5 A SECO - DERRAMARO O GAI
TTITLE15=SILVIA MARIA E DALUA - MANGARATIBA
TTITLE16=NATION BEAT - MADAME BAIÃO
EXTD=
EXTT0=
EXTT1=
EXTT2=
EXTT3=
EXTT4=
EXTT5=
EXTT6=
EXTT7=
EXTT8=
EXTT9=
EXTT10=
EXTT11=
EXTT12=
EXTT13=
EXTT14=
EXTT15=
EXTT16=
PLAYORDER=
